<svg xmlns="http://www.w3.org/2000/svg" width="94" height="36" viewBox="0 0 94 36">
  <g id="Page-1" transform="translate(0 0)">
    <g id="YouTube">
      <path id="Oval-1" d="M36,18A18,18,0,1,0,18,36,18,18,0,0,0,36,18Zm-2.16,0A15.84,15.84,0,1,0,18,33.84,15.84,15.84,0,0,0,33.84,18Zm-7.367,4.151a2.218,2.218,0,0,1-1.9,1.725A58.969,58.969,0,0,1,18,24.12a58.966,58.966,0,0,1-6.576-.243,2.218,2.218,0,0,1-1.9-1.725A18.821,18.821,0,0,1,9.219,18a18.834,18.834,0,0,1,.309-4.151,2.218,2.218,0,0,1,1.9-1.725A58.972,58.972,0,0,1,18,11.88a58.967,58.967,0,0,1,6.576.243,2.218,2.218,0,0,1,1.9,1.725,18.819,18.819,0,0,1,.3,4.151A18.831,18.831,0,0,1,26.473,22.151ZM16.419,14.76l4.86,2.806-4.86,2.806Zm0,0" fill="#8695a8" fill-rule="evenodd"/>
    </g>
    <g id="Group_10257" data-name="Group 10257" transform="translate(-1335 -293)">
      <path id="Oval-1-2" data-name="Oval-1" d="M36,18A18,18,0,1,0,18,36,18,18,0,0,0,36,18Zm-2.16,0A15.84,15.84,0,1,0,18,33.84,15.84,15.84,0,0,0,33.84,18Z" transform="translate(1393 293)" fill="#8695a8" fill-rule="evenodd"/>
      <path id="Path_6558" data-name="Path 6558" d="M15.38,4H3.487A1.485,1.485,0,0,0,2.007,5.487L2,14.407a1.491,1.491,0,0,0,1.487,1.487H15.38a1.491,1.491,0,0,0,1.487-1.487V5.487A1.491,1.491,0,0,0,15.38,4Zm0,2.973L9.433,10.69,3.487,6.973V5.487L9.433,9.2,15.38,5.487Z" transform="translate(1401.988 301.246)" fill="#8695a8"/>
    </g>
  </g>
</svg>
